HIERARCHY
ROOT hip
{
	OFFSET 0.000000 0.000000 0.000000 
	CHANNELS 6 Xposition Yposition Zposition Xrotation Zrotation Yrotation
	JOINT abdomen
	{
		OFFSET 0.000000 3.402643 0.000000 
		CHANNELS 3 Xrotation Zrotation Yrotation
		JOINT chest
		{
			OFFSET 0.000000 8.438565 -0.680529 
			CHANNELS 3 Xrotation Zrotation Yrotation
			JOINT neck
			{
				OFFSET 0.000000 10.207942 -0.272212 
				CHANNELS 3 Xrotation Zrotation Yrotation
				JOINT head
				{
					OFFSET 0.000000 3.130431 0.000000 
					CHANNELS 3 Xrotation Zrotation Yrotation
					End Site
					{
						OFFSET 0.000000 3.130435 0.000000 
					}
				}
			}
			JOINT lCollar
			{
				OFFSET 3.470700 6.669187 -0.816635 
				CHANNELS 3 Yrotation Zrotation Xrotation
				JOINT lShldr
				{
					OFFSET 3.198488 0.000000 0.000000 
					CHANNELS 3 Zrotation Yrotation Xrotation
					JOINT lForeArm
					{
						OFFSET 10.139888 0.000000 0.000000 
						CHANNELS 3 Yrotation Zrotation Xrotation
						JOINT lHand
						{
							OFFSET 8.370511 0.000000 0.000000 
							CHANNELS 3 Zrotation Yrotation Xrotation
							End Site
							{
								OFFSET 4.083176 0.000000 0.000000 
							}
						}
					}
				}
			}
			JOINT rCollar
			{
				OFFSET -3.470700 6.669187 -0.816635 
				CHANNELS 3 Yrotation Zrotation Xrotation
				JOINT rShldr
				{
					OFFSET -3.198488 0.000000 0.000000 
					CHANNELS 3 Zrotation Yrotation Xrotation
					JOINT rForeArm
					{
						OFFSET -10.139888 0.000000 0.000000 
						CHANNELS 3 Yrotation Zrotation Xrotation
						JOINT rHand
						{
							OFFSET -8.370511 0.000000 0.000000 
							CHANNELS 3 Zrotation Yrotation Xrotation
							End Site
							{
								OFFSET -4.083176 0.000000 0.000000 
							}
						}
					}
				}
			}
		}
	}
	JOINT lThigh
	{
		OFFSET 5.308129 -1.633274 1.361059 
		CHANNELS 3 Xrotation Zrotation Yrotation
		JOINT lShin
		{
			OFFSET -2.041588 -20.007561 0.000000 
			CHANNELS 3 Xrotation Zrotation Yrotation
			JOINT lFoot
			{
				OFFSET 0.000000 -19.190928 -1.224953 
				CHANNELS 3 Xrotation Yrotation Zrotation
				End Site
				{
					OFFSET 0.000000 -2.449906 4.627600 
				}
			}
		}
	}
	JOINT rThigh
	{
		OFFSET -5.308129 -1.633274 1.361059 
		CHANNELS 3 Xrotation Zrotation Yrotation
		JOINT rShin
		{
			OFFSET 2.041588 -20.007561 0.000000 
			CHANNELS 3 Xrotation Zrotation Yrotation
			JOINT rFoot
			{
				OFFSET 0.000000 -19.190928 -1.224953 
				CHANNELS 3 Xrotation Yrotation Zrotation
				End Site
				{
					OFFSET 0.000000 -2.449906 4.627600 
				}
			}
		}
	}
}
MOTION
Frames: 6
Frame Time: 0.033333
-31.634401 27.931746 6.790168 -19.616978 13.213844 30.791430 61.411892 -1.020563 -6.413002 -20.839844 0.000000 0.000000 -19.112940 12.496634 -10.498444 -2.520848 -1.255046 0.218349 -4.754609 -0.109184 -0.002653 -68.118477 -2.193630 0.839287 -95.964531 -19.662865 -2.381822 8.750237 -14.788504 -1.908841 4.754609 0.109184 -0.002672 38.414536 -1.889686 -20.625881 76.335823 0.056337 0.738208 -19.535761 -7.087041 2.260035 -57.138565 27.949234 -0.867229 85.936386 3.701002 -6.406818 4.621663 -3.436467 -0.509358 -58.719456 -18.779249 -0.100149 86.046303 -1.268867 6.251069 5.952237 3.209454 2.494512 
-31.572466 27.980993 6.829764 -19.249880 13.238995 31.172194 61.629509 -1.322671 -6.942355 -20.839844 0.000000 0.000000 -22.331545 11.694028 -12.253034 -2.520848 -1.255046 0.218349 -4.754609 -0.109184 -0.002653 -69.289192 -3.353167 1.343729 -101.490639 -19.067875 -3.422955 10.068501 -15.819452 -1.038324 4.754609 0.109184 -0.002672 38.475121 -1.611575 -20.242491 72.804581 0.531430 1.490066 -19.511883 -7.632256 3.229558 -58.777657 27.733625 -1.508622 85.917458 4.072715 -7.041709 11.720693 -4.572680 -1.830778 -56.789577 -18.913958 -0.253451 85.121048 -1.229906 7.813802 6.814215 5.569218 3.508602 
-31.560274 28.015516 6.866828 -18.969709 12.730668 31.537973 61.465523 -1.572588 -7.355396 -20.839844 0.000000 0.000000 -27.846334 10.521024 -13.487252 -2.520848 -1.255046 0.218349 -4.754609 -0.109184 -0.002653 -69.227898 -3.777197 2.326771 -105.745163 -19.941498 -2.659247 14.334666 -17.847984 1.849773 4.754609 0.109184 -0.002672 38.955788 -2.634359 -20.555862 73.837799 0.138761 -0.712426 -16.588448 -8.687214 0.095903 -60.438931 27.187376 -2.039549 85.617577 4.296102 -7.501822 17.095198 -5.357960 -2.326804 -55.368530 -19.315678 -0.631076 83.961357 -0.946849 8.550623 6.923452 6.614404 2.522758 
-31.598864 28.067297 6.860221 -19.000765 11.952322 31.480227 60.977886 -1.680792 -7.701276 -20.839844 0.000000 0.000000 -33.378830 8.584320 -12.904199 -2.520848 -1.255046 0.218349 -4.754609 -0.109184 -0.002653 -68.036545 -2.616628 3.231613 -107.902603 -22.019791 -0.895804 20.236404 -21.479204 5.113367 4.754609 0.109184 -0.002672 39.582870 -3.459925 -21.002270 76.172180 -0.523979 -2.623029 -14.097989 -8.728273 -2.664121 -61.497787 27.106834 -2.203077 85.262665 4.180159 -7.711664 19.154385 -5.829632 -2.959461 -55.729168 -19.432514 -0.781039 83.641838 -0.654217 8.211069 6.002050 6.075706 1.068016 
-31.537432 28.079985 6.807929 -19.300806 11.593637 30.861517 60.971733 -1.234874 -7.653663 -20.839844 0.000000 0.000000 -38.138599 6.685706 -11.473438 -2.520848 -1.255046 0.218349 -4.754609 -0.109184 -0.002653 -66.298210 -0.228137 3.936723 -106.348320 -24.961040 1.187472 24.596294 -25.451773 6.807712 4.754609 0.109184 -0.002672 39.661858 -3.251167 -21.037067 77.241203 -0.676950 -1.138058 -15.578540 -7.602511 -0.456549 -61.195606 27.663654 -1.959786 85.477089 3.955411 -7.451519 16.384121 -5.397858 -3.541198 -56.697906 -18.915794 -0.572321 83.804832 -0.732123 7.951383 7.438504 5.725505 1.685959 
-31.417116 28.015516 6.767325 -19.769215 11.425159 30.216829 61.595150 -0.171557 -7.642170 -20.839844 0.000000 0.000000 -42.960552 5.548166 -9.643470 -2.520848 -1.255046 0.218349 -4.754609 -0.109184 -0.002653 -63.755875 2.192291 4.161235 -101.649139 -27.813124 1.652258 24.223150 -25.250994 5.228584 4.754609 0.109184 -0.002672 39.140572 -3.065156 -21.111609 80.427475 -0.717408 0.620563 -19.564320 -6.362723 2.194212 -59.866035 28.160915 -1.569116 86.113403 3.858075 -7.004601 8.689446 -4.553485 -3.007301 -57.551495 -18.308605 -0.275067 84.045761 -0.956309 8.096001 9.488968 6.029445 2.967914 
